<?xml version="1.0" standalone="no"?>
<!DOCTYPE svg PUBLIC "-//W3C//DTD SVG 20010904//EN"
 "http://www.w3.org/TR/2001/REC-SVG-20010904/DTD/svg10.dtd">
<svg version="1.0" xmlns="http://www.w3.org/2000/svg"
 width="750.000000pt" height="400.000000pt" viewBox="0 0 750.000000 400.000000"
 preserveAspectRatio="xMidYMid meet">
<metadata>
Created by potrace 1.16, written by Peter Selinger 2001-2019
</metadata>
<g transform="translate(0.000000,400.000000) scale(0.100000,-0.100000)"
fill="#000000" stroke="none">
<path d="M344 3960 c-66 -71 -69 -78 -43 -101 12 -10 27 -19 32 -19 6 0 7 -3
3 -7 -4 -4 -19 -7 -33 -8 -33 0 -39 -17 -16 -40 10 -10 18 -25 18 -34 0 -12 9
-15 44 -12 53 3 91 17 91 31 0 5 9 10 20 10 11 0 20 5 20 10 0 6 11 10 25 10
28 0 75 20 75 32 0 4 -3 9 -7 9 -66 10 -75 8 -105 -21 -33 -33 -48 -31 -48 5
0 18 11 32 40 50 44 28 113 35 104 11 -3 -9 3 -17 15 -21 12 -3 19 -11 16 -16
-4 -5 2 -12 12 -16 10 -4 23 -13 28 -20 8 -11 20 -12 57 -4 26 6 54 8 62 5 10
-4 20 5 30 30 18 44 38 53 69 33 15 -10 29 -12 39 -6 11 6 18 4 21 -5 4 -10
21 -14 52 -14 50 0 75 -14 75 -43 0 -24 -31 -25 -64 -3 -16 10 -26 12 -31 5
-3 -6 0 -11 8 -11 8 0 17 -6 20 -14 3 -7 25 -17 49 -21 43 -8 43 -8 13 -15
-22 -6 -25 -8 -10 -10 11 -1 26 -2 33 -1 6 1 12 -3 12 -9 0 -5 -6 -10 -14 -10
-8 0 -18 -5 -22 -12 -4 -6 -3 -8 3 -5 13 8 66 -70 66 -97 -1 -12 -9 -50 -19
-85 l-19 -63 -42 6 c-25 3 -44 2 -44 -4 -1 -6 -3 -13 -4 -17 -2 -5 -6 -18 -10
-30 -4 -13 -11 -23 -16 -23 -5 0 -9 -7 -9 -16 0 -12 -6 -15 -22 -10 -13 3 -26
6 -30 6 -4 0 -5 7 -1 15 3 9 2 15 -3 14 -5 -1 -16 1 -26 5 -21 9 -78 -19 -78
-39 0 -19 -18 -19 -63 0 -20 8 -37 23 -40 36 -4 15 -11 20 -23 15 -9 -3 -23
-1 -31 5 -10 9 -19 9 -38 -1 -22 -12 -27 -11 -45 5 -18 16 -20 16 -26 1 -9
-23 -21 -20 -28 8 -4 17 -15 25 -41 30 -34 7 -89 49 -77 60 3 3 0 6 -7 6 -7 0
-11 7 -8 15 4 8 2 17 -2 20 -8 4 -22 -19 -22 -35 0 -3 -9 -8 -21 -13 -17 -6
-18 -10 -8 -22 10 -13 4 -19 -41 -40 -30 -14 -64 -25 -77 -25 -15 0 -26 -8
-32 -25 -6 -15 -15 -23 -24 -19 -21 8 -29 -12 -18 -49 6 -17 13 -53 17 -79 6
-47 6 -47 -32 -66 -21 -11 -50 -22 -65 -26 l-28 -6 0 -140 0 -140 147 6 c210
9 273 7 273 -7 0 -4 13 -10 29 -14 33 -7 42 -23 34 -54 -4 -17 -1 -21 20 -21
16 0 31 -8 37 -20 13 -24 2 -43 -48 -85 -41 -34 -31 -48 35 -47 52 0 83 -11
83 -32 0 -18 -26 -27 -56 -20 -13 3 -36 3 -50 0 -22 -6 -25 -11 -21 -33 8 -43
-1 -53 -52 -53 l-46 -1 42 -15 c31 -11 48 -12 62 -4 11 5 34 10 52 10 26 0 29
-2 20 -14 -10 -12 -8 -17 7 -25 15 -8 28 -6 53 6 18 9 53 16 78 16 25 0 51 4
57 9 8 5 18 3 27 -7 9 -8 24 -15 34 -15 70 -2 183 -61 183 -95 0 -16 21 -20
34 -8 4 4 25 6 46 4 29 -2 42 2 46 13 3 9 12 16 20 16 8 0 14 4 14 9 0 5 9 11
20 14 15 4 20 0 20 -13 0 -10 -8 -21 -18 -23 -16 -4 -16 -5 1 -6 14 -1 17 -6
12 -21 -5 -17 -2 -20 21 -20 37 0 164 -59 164 -76 0 -8 8 -15 18 -16 9 0 22
-2 27 -3 6 -2 18 -3 28 -4 10 -1 17 -9 17 -21 0 -10 9 -24 20 -30 11 -6 18
-15 15 -21 -4 -5 -1 -9 6 -9 6 0 9 -8 6 -20 -5 -20 18 -41 63 -55 24 -8 24 -7
7 18 -9 15 -17 31 -17 37 0 20 19 10 32 -17 17 -36 53 -42 69 -12 10 19 8 25
-12 40 l-24 19 42 0 c35 0 42 3 45 22 2 13 15 29 31 36 15 7 27 21 27 30 0 9
7 29 14 45 13 24 13 27 -1 27 -9 0 -13 6 -10 15 8 18 -13 32 -23 15 -6 -9 -10
-7 -15 9 -5 17 -14 21 -45 21 -21 0 -42 4 -45 10 -3 6 -17 10 -31 10 -13 0
-24 4 -24 8 0 5 -26 9 -57 8 -46 0 -65 4 -93 24 -19 14 -39 31 -43 38 -4 7
-24 19 -44 27 -35 15 -35 15 -18 41 16 24 16 27 -2 47 -9 12 -26 29 -37 38
-25 22 -8 54 42 74 39 17 52 30 52 58 0 10 -8 17 -20 17 -11 0 -20 5 -20 10 0
6 5 10 11 10 5 0 8 4 5 9 -3 5 1 14 9 21 22 18 19 51 -5 57 -16 4 -19 11 -14
32 4 14 12 33 19 41 6 8 15 23 18 33 4 9 15 20 24 24 33 12 46 25 31 34 -21
13 17 35 126 69 60 19 114 30 138 28 32 -2 44 2 59 21 10 13 16 28 13 33 -4 7
11 8 43 3 49 -6 198 21 243 45 12 7 33 5 66 -5 53 -16 66 -12 153 49 57 41
111 60 125 46 13 -13 49 -13 63 1 8 8 17 8 31 0 31 -16 46 -14 76 14 15 14 32
25 37 25 5 0 20 11 32 24 33 37 125 80 166 79 47 -2 80 -3 114 -1 39 1 55 -16
39 -42 -6 -10 -9 -26 -6 -35 3 -8 1 -15 -5 -15 -6 0 -11 -4 -11 -8 0 -5 13 -7
28 -4 26 3 62 47 62 74 0 14 67 88 98 110 13 9 40 16 58 16 27 0 34 -4 34 -19
0 -20 15 -26 25 -9 3 6 19 10 35 10 17 0 34 8 43 20 8 11 17 17 22 12 5 -4 5
-2 1 5 -4 7 6 21 24 34 19 15 32 35 36 58 4 20 14 42 22 50 10 10 11 16 4 19
-18 6 30 91 55 98 17 5 20 11 17 32 -7 35 -31 61 -72 79 -18 7 -30 18 -27 23
3 6 -3 10 -13 10 -11 0 -19 -6 -18 -12 0 -7 -3 -13 -9 -13 -5 0 -9 6 -9 13 1
9 -57 12 -261 12 -285 0 -282 1 -299 -58 -4 -12 -23 -34 -42 -48 -19 -15 -34
-33 -34 -40 0 -21 -140 -154 -161 -154 -11 0 -19 -3 -19 -7 0 -11 -50 -33 -72
-33 -10 0 -31 -8 -47 -18 -27 -17 -37 -17 -116 -6 -47 7 -94 15 -104 19 -29 9
-84 -19 -88 -46 -9 -54 -4 -109 10 -109 5 0 4 -7 -3 -15 -7 -8 -9 -15 -5 -15
5 0 0 -9 -10 -20 -10 -11 -24 -20 -31 -20 -7 0 -14 -6 -17 -12 -3 -10 -7 -10
-20 0 -14 12 -20 11 -39 -2 -31 -22 -75 -20 -105 4 -14 11 -36 20 -49 20 -13
0 -24 5 -24 11 0 6 -18 9 -45 8 -24 -2 -47 0 -51 4 -4 4 -2 7 5 7 7 0 10 4 6
9 -3 6 2 14 11 19 14 8 14 12 -4 43 -18 32 -22 34 -68 31 -53 -4 -67 -15 -59
-48 3 -14 -6 -31 -27 -53 -26 -27 -37 -32 -61 -27 -16 3 -107 11 -201 17 -154
11 -173 14 -191 33 -18 20 -21 29 -17 64 1 6 15 12 31 12 15 0 40 9 54 20 14
11 30 20 36 20 6 0 11 3 12 8 5 52 4 112 -3 112 -4 0 -8 7 -8 15 0 9 -7 18
-15 21 -23 9 -18 48 10 78 23 25 62 33 128 28 27 -3 75 28 81 52 3 12 6 33 6
49 l0 27 -281 0 c-174 0 -278 -4 -274 -9 6 -11 -17 -25 -59 -35 -26 -7 -28 -5
-24 18 l5 26 -203 0 c-152 0 -204 -3 -208 -12 -5 -10 -7 -10 -12 0 -10 22 -32
13 -70 -28z"/>
<path d="M5550 3990 c0 -4 14 -10 30 -14 22 -4 35 -15 47 -42 17 -36 18 -36
63 -29 25 4 52 8 60 9 8 1 26 8 38 15 13 7 34 10 47 7 13 -3 27 -2 30 4 3 5 1
10 -4 10 -6 0 -11 4 -11 9 0 6 19 11 42 13 23 2 43 9 46 16 3 10 -36 13 -192
11 -108 -1 -196 -5 -196 -9z"/>
<path d="M4785 3902 c-10 -2 -29 -11 -42 -19 -15 -10 -23 -11 -23 -4 0 21 -34
11 -56 -16 -18 -23 -29 -28 -63 -27 -23 1 -41 -2 -41 -7 0 -5 -12 -3 -26 3
-22 10 -27 9 -36 -6 -8 -15 -12 -16 -19 -5 -6 10 -10 7 -18 -12 -5 -15 -17
-29 -25 -32 -9 -4 -16 -16 -16 -27 0 -19 4 -21 30 -15 17 4 30 2 30 -3 0 -5
14 -7 33 -2 17 4 31 12 30 18 -4 15 14 16 19 2 2 -5 36 -14 77 -19 101 -13
174 6 219 56 23 25 30 39 22 47 -5 5 -10 19 -10 31 0 16 2 17 10 5 8 -13 10
-13 10 2 0 16 -36 35 -47 24 -3 -3 -13 -2 -22 3 -9 4 -25 6 -36 3z"/>
<path d="M3830 3818 c0 -6 -7 -19 -15 -28 -19 -21 -39 -124 -25 -128 13 -5 13
-59 0 -67 -6 -4 -10 -21 -8 -39 2 -36 -22 -73 -78 -119 -40 -34 -43 -58 -13
-122 32 -67 24 -130 -21 -175 -19 -20 -46 -48 -60 -64 l-25 -28 45 18 c25 9
51 22 58 27 8 6 12 5 12 -4 0 -9 3 -10 8 -3 4 6 15 13 25 17 9 3 17 14 17 22
0 9 4 13 10 10 20 -13 54 -14 61 -3 6 9 11 8 23 -1 13 -11 16 -11 16 0 0 11 2
11 10 -1 8 -13 10 -12 10 3 0 21 14 22 33 2 8 -8 17 -11 21 -8 3 4 6 1 6 -6 0
-7 6 -11 13 -8 6 2 20 -2 30 -11 12 -11 17 -12 17 -2 0 7 7 10 15 6 8 -3 15
-1 15 3 0 11 -26 21 -42 17 -7 -1 -10 -1 -6 1 12 7 -3 33 -19 33 -8 0 -11 5
-7 13 4 6 4 9 0 6 -10 -9 -99 26 -104 41 -3 8 0 10 7 5 10 -5 11 11 6 73 -5
55 -4 82 4 86 8 5 11 -19 13 -81 1 -86 1 -87 8 -28 l7 60 1 -62 c3 -98 22 -88
22 11 0 55 4 86 11 86 6 0 10 -10 9 -22 -1 -13 -1 -41 0 -63 l3 -40 6 45 c5
37 10 46 29 48 53 8 6 86 -67 111 -19 6 -54 11 -79 11 -25 0 -43 3 -39 6 11
11 112 12 126 1 12 -10 12 -9 3 10 -7 12 -17 25 -22 28 -6 3 -10 23 -10 44 0
20 -6 43 -12 49 -9 9 -10 17 -2 30 18 28 12 127 -9 150 -14 15 -15 21 -5 25
10 4 10 8 -2 16 -20 14 -30 14 -30 -1z"/>
<path d="M7155 3452 c-22 -2 -45 -8 -52 -14 -7 -5 -16 -7 -21 -4 -6 3 -36 -8
-68 -24 -70 -35 -138 -56 -216 -65 -39 -5 -55 -11 -52 -19 3 -7 -1 -18 -9 -24
-9 -8 -12 -23 -9 -39 3 -16 1 -24 -5 -20 -6 4 -18 -2 -28 -13 -12 -13 -14 -20
-6 -20 8 0 10 -7 6 -21 -7 -20 -6 -20 25 -4 18 9 34 14 37 11 3 -3 -2 -23 -11
-46 -10 -26 -12 -40 -5 -40 6 0 9 -6 6 -14 -3 -8 1 -20 9 -27 20 -17 68 18 72
53 3 21 52 81 95 116 19 15 42 15 67 2 26 -14 79 7 90 35 5 14 21 26 39 30 17
4 31 11 31 16 0 14 27 11 44 -6 19 -19 89 -19 126 0 17 9 30 19 30 23 0 7 10
13 66 42 33 17 46 32 36 41 -26 23 -199 41 -297 31z"/>
<path d="M3766 3045 c0 -25 -2 -45 -6 -45 -3 0 -5 -19 -4 -42 4 -70 -6 -118
-25 -118 -10 0 -12 3 -5 8 22 14 26 63 7 85 -10 11 -12 17 -5 13 15 -9 16 10
1 19 -6 4 -20 -3 -32 -16 -16 -17 -17 -21 -4 -16 14 5 15 1 10 -26 -3 -18 -7
-34 -9 -36 -2 -2 2 -11 9 -19 10 -13 9 -14 -3 -10 -8 2 -18 18 -22 34 -5 24
-6 22 -5 -13 1 -31 5 -43 16 -43 11 0 12 -3 4 -11 -7 -7 -19 -9 -29 -5 -14 5
-16 17 -11 84 3 42 9 87 13 100 4 13 2 22 -5 22 -6 0 -10 -6 -8 -12 1 -7 -9
-14 -23 -16 -38 -6 -45 -19 -8 -15 25 3 29 2 18 -6 -8 -6 -25 -11 -38 -11 -14
0 -21 -4 -16 -11 3 -6 1 -14 -5 -18 -15 -10 -33 -71 -20 -71 5 0 9 11 9 24 0
14 3 27 8 30 4 2 7 -15 7 -40 0 -46 -4 -51 -23 -32 -9 9 -12 6 -12 -16 0 -15
4 -25 10 -21 6 3 10 1 10 -4 0 -13 -10 -14 -26 -3 -13 8 -14 132 -1 132 4 0 7
5 7 10 0 7 -6 7 -20 0 -13 -7 -20 -7 -20 -1 0 6 10 13 23 17 13 3 30 23 43 50
22 45 16 60 -9 24 -8 -11 -17 -17 -22 -12 -4 4 -5 -1 -2 -10 4 -13 2 -15 -10
-11 -11 4 -14 2 -9 -5 4 -7 2 -12 -6 -12 -11 0 -10 -2 0 -9 10 -6 8 -10 -8
-14 -12 -3 -19 -10 -16 -16 3 -5 -1 -16 -9 -24 -30 -31 -59 -155 -32 -142 6 4
4 0 -7 -9 -10 -8 -15 -19 -11 -25 4 -7 0 -8 -10 -5 -9 4 -12 11 -7 18 4 6 9
27 11 46 1 19 6 52 11 72 10 48 -11 73 -31 36 -7 -13 -12 -26 -11 -30 1 -5 -2
-8 -6 -8 -11 0 -32 -46 -31 -68 0 -14 2 -13 9 3 8 18 9 17 7 -6 -1 -17 -6 -25
-14 -22 -9 3 -13 -4 -13 -20 0 -14 -5 -29 -11 -33 -15 -9 -2 71 17 108 8 15
14 31 14 35 0 5 11 25 24 46 14 20 23 37 21 37 -10 0 -55 -48 -55 -59 0 -6 -5
-11 -12 -11 -6 0 -9 -3 -5 -6 8 -8 -34 -54 -44 -48 -11 6 -50 -71 -41 -81 4
-5 -1 -5 -10 -2 -10 4 -18 2 -18 -3 0 -6 5 -10 10 -10 6 0 1 -9 -11 -21 -11
-11 -18 -27 -15 -35 3 -8 1 -14 -4 -14 -5 0 -15 -19 -22 -42 -8 -28 -30 -60
-62 -90 -27 -27 -45 -48 -41 -48 4 0 -13 -22 -38 -48 -84 -91 -103 -160 -68
-252 25 -67 25 -67 3 -74 -20 -7 -112 -91 -112 -103 0 -5 -14 -25 -30 -45 -29
-35 -60 -105 -60 -134 0 -7 8 -15 18 -18 9 -2 -19 -3 -64 -2 -100 4 -119 -7
-119 -67 l0 -42 -160 -8 c-88 -4 -255 -5 -372 -1 -230 6 -257 3 -248 -27 4
-11 4 -38 0 -59 -7 -40 -7 -40 -52 -40 -41 0 -44 -1 -37 -22 8 -29 29 -67 49
-93 14 -17 17 -18 25 -5 9 13 10 13 10 0 1 -8 5 -5 11 8 l9 24 262 -6 c162 -4
264 -10 268 -16 3 -6 33 -14 66 -19 45 -7 6 -9 -171 -11 -223 -3 -226 -4 -100
-11 72 -3 153 -8 180 -10 l50 -2 -65 -7 -65 -7 79 -1 c44 -1 77 -5 73 -8 -3
-3 -48 -6 -99 -5 -51 1 -136 -2 -188 -6 l-95 -8 139 -5 c126 -5 139 -7 142
-24 1 -10 7 -23 13 -29 6 -6 12 -29 13 -51 1 -38 2 -38 5 -8 4 29 7 32 31 29
26 -4 27 -6 27 -63 0 -46 -20 -399 -29 -501 -1 -13 -12 -19 -40 -23 -58 -7
-59 -30 -2 -30 24 0 48 -4 51 -10 4 -6 -13 -10 -44 -10 -28 0 -51 -5 -51 -10
0 -6 3 -9 8 -9 4 1 41 0 82 -1 61 -2 68 -4 40 -10 -19 -4 -28 -8 -20 -10 9 -1
4 -5 -10 -10 -21 -7 -18 -8 20 -10 25 -1 64 -4 88 -6 39 -3 42 -2 42 21 l0 25
158 0 c120 -1 152 -3 137 -12 -11 -6 -27 -19 -35 -29 -18 -22 -27 -22 -351
-20 l-236 1 -11 24 c-16 36 -56 38 -102 5 l-40 -29 -264 0 c-293 0 -326 3
-319 30 3 12 -3 19 -19 23 -39 11 -52 8 -80 -18 -34 -31 -90 -33 -133 -5 -37
25 -56 25 -52 3 1 -10 7 -18 12 -18 6 0 9 3 8 8 -5 12 11 8 34 -8 13 -9 20
-22 16 -30 -4 -11 -1 -13 11 -9 9 3 13 10 10 15 -5 8 726 1 735 -7 2 -2 -3
-12 -12 -22 -21 -23 -22 -42 -2 -42 8 0 15 7 15 15 0 8 4 15 10 15 5 0 7 -6 4
-14 -6 -16 33 -33 47 -19 4 4 9 23 11 41 l2 32 57 -2 c33 -1 55 -6 52 -12 -4
-5 -1 -6 8 0 19 12 229 12 221 0 -3 -5 1 -5 9 -1 14 9 287 7 301 -1 5 -3 5
-16 2 -29 -3 -12 -1 -26 5 -29 6 -4 11 0 11 8 0 8 5 18 11 22 8 5 10 -1 7 -19
-4 -18 -1 -24 9 -20 7 3 13 16 13 28 0 55 -4 54 197 48 111 -4 184 -2 181 3
-4 5 -61 9 -127 9 l-122 -1 -25 33 -25 33 333 2 333 3 -340 5 c-187 3 -329 7
-315 8 14 2 54 3 90 3 36 -1 70 2 76 6 18 12 21 72 5 82 -10 7 -13 23 -8 63 4
42 3 47 -5 25 -11 -30 -41 -42 -88 -35 -18 3 -30 0 -30 -6 0 -7 21 -10 55 -9
48 1 55 -1 55 -18 0 -18 -11 -21 -75 -21 -66 0 -65 -1 -66 55 0 28 -3 47 -5
41 -3 -7 -13 -10 -24 -7 -17 4 -18 0 -15 -41 2 -28 0 -46 -7 -46 -6 0 -8 11
-6 25 3 13 1 22 -3 19 -5 -3 -9 -14 -9 -24 0 -10 -4 -21 -9 -25 -10 -5 -7 -37
4 -55 3 -6 1 -10 -5 -10 -6 0 -9 -4 -5 -10 3 -5 12 -7 20 -3 8 3 15 1 15 -4 0
-6 -69 -9 -165 -9 -145 1 -189 6 -156 18 6 1 11 24 12 50 2 27 7 54 12 60 6 9
7 7 3 -5 -4 -14 -1 -18 11 -15 19 3 19 3 28 193 3 77 13 202 21 277 8 76 13
143 12 150 -2 7 8 14 22 17 23 3 24 4 5 12 -19 7 -19 8 3 8 22 1 22 0 22 -134
0 -113 2 -135 15 -135 12 0 15 -16 15 -87 0 -49 -5 -117 -10 -153 -22 -158
-22 -160 3 -151 21 8 22 15 25 112 3 114 29 457 38 502 4 19 12 27 27 28 20 1
20 2 -3 9 -25 8 -25 8 -2 9 13 1 20 6 17 11 -3 5 0 10 7 10 10 0 12 -21 10
-94 -2 -52 -2 -104 0 -117 l5 -24 11 25 11 25 1 -30 1 -30 22 28 c28 34 37 27
37 -30 l0 -43 88 2 87 2 -70 6 -70 6 68 2 c43 1 66 6 62 12 -3 6 -1 10 5 10 6
0 8 5 4 12 -5 7 0 9 14 6 19 -5 21 -1 27 51 12 120 17 141 28 141 7 0 6 4 -3
10 -12 8 -10 10 10 10 17 0 21 3 12 8 -7 5 -10 16 -7 24 4 9 1 19 -4 23 -6 3
-9 11 -6 16 4 5 1 9 -6 9 -6 0 -9 -8 -6 -20 4 -16 2 -18 -13 -10 -10 5 -20 14
-22 19 -1 5 -67 11 -146 12 -112 2 -146 -1 -152 -12 -5 -7 -6 -17 -3 -23 4 -5
1 -6 -6 -2 -7 5 -10 14 -7 22 8 20 -21 17 -33 -3 -10 -17 -11 -16 -17 3 -5 18
-12 20 -56 17 -28 -1 -57 -8 -65 -14 -7 -7 -17 -8 -21 -4 -4 4 -1 10 6 12 6 3
12 14 12 26 0 21 5 22 72 21 l73 -1 -67 4 c-64 4 -68 5 -68 27 0 21 6 25 43
29 79 11 2397 3 2405 -8 4 -5 14 -10 22 -10 8 0 17 -11 18 -25 4 -27 34 -60
54 -60 9 0 9 3 -2 10 -11 7 1 9 40 8 53 -1 53 -1 15 -7 -62 -10 152 -21 410
-21 121 0 225 -4 231 -8 6 -4 13 -15 17 -24 6 -16 -10 -18 -211 -21 l-217 -2
218 -3 c202 -2 218 -3 215 -19 -2 -12 -14 -19 -33 -21 -17 -2 -34 -7 -38 -12
-5 -4 -20 -2 -34 5 -22 12 -29 11 -52 -3 -14 -10 -22 -11 -18 -4 11 16 -15 16
-32 0 -11 -10 -14 -10 -18 0 -4 9 -41 11 -146 10 l-142 -2 123 -6 c67 -3 122
-9 121 -13 0 -5 8 -16 19 -25 27 -23 27 -24 63 -482 12 -151 7 -200 -19 -201
-14 0 -13 -2 3 -9 11 -5 22 -9 25 -9 13 -2 9 156 -10 384 -25 315 -26 291 8
290 15 0 26 5 25 10 -1 6 7 11 17 12 25 2 50 -53 50 -109 0 -24 9 -133 21
-243 11 -110 21 -224 21 -253 1 -37 4 -48 11 -37 5 10 0 115 -13 273 -12 141
-23 276 -25 300 -3 40 -2 42 23 41 24 0 25 -1 7 -9 -19 -8 -19 -9 1 -9 17 -1
23 7 29 36 7 37 7 37 20 14 7 -13 10 -32 8 -41 -3 -10 0 -21 6 -24 6 -4 11 -2
11 3 0 13 37 15 44 2 3 -5 -7 -11 -23 -14 -34 -7 -41 -27 -31 -91 7 -49 30
-87 30 -50 0 16 2 17 10 4 8 -13 10 -12 10 3 0 22 17 22 22 0 5 -25 58 -26 58
-1 0 10 5 18 10 18 6 0 10 -14 10 -31 0 -19 4 -28 11 -23 6 3 9 19 5 35 -4 23
-2 28 17 31 l22 3 -24 14 c-17 9 -26 10 -34 2 -16 -16 -27 -14 -21 3 4 11 -4
16 -33 19 -36 3 -36 4 9 5 64 3 90 -10 113 -52 13 -24 22 -31 27 -23 5 8 8 5
9 -8 l0 -20 9 20 c6 13 9 15 9 5 1 -13 2 -13 11 0 8 12 10 12 11 -5 l0 -20 9
20 c6 13 9 15 9 5 1 -12 20 -15 107 -16 63 -1 110 -6 117 -13 19 -19 29 -12
25 19 -5 33 3 38 22 15 11 -13 15 -13 21 -3 6 9 9 8 9 -6 0 -15 5 -17 31 -12
20 4 38 1 47 -6 10 -9 13 -9 9 -1 -5 8 8 10 45 8 29 -2 54 -8 56 -14 2 -6 9
-11 16 -11 8 0 11 13 9 38 -3 30 -2 34 7 20 6 -10 18 -18 26 -18 8 0 12 5 9
10 -3 6 -1 10 4 10 6 0 11 -6 11 -14 0 -8 15 -16 38 -20 61 -10 72 -8 72 14 0
16 7 20 34 20 25 0 35 -5 39 -20 3 -11 0 -20 -6 -20 -7 0 -6 -4 3 -9 20 -14
27 -6 23 26 l-5 28 62 -1 c41 0 65 -5 72 -15 8 -11 9 -11 4 3 -3 12 0 18 10
18 9 0 12 5 8 11 -5 9 -47 10 -149 5 -149 -7 -304 1 -270 15 11 4 31 5 45 2
20 -4 22 -2 10 6 -11 8 -2 11 38 11 41 0 52 3 52 16 0 13 7 15 32 12 82 -12
250 18 463 82 33 10 72 21 86 24 30 7 43 29 33 58 -6 19 -12 20 -138 13 -177
-9 -207 -12 -240 -24 -15 -6 -40 -11 -55 -11 -16 0 -53 -11 -82 -24 -50 -22
-90 -33 -194 -56 -22 -5 -73 -5 -114 -2 l-73 7 -2 49 c-2 46 0 50 37 74 36 24
37 27 21 39 -10 7 -41 13 -69 13 -131 0 -345 49 -383 87 -14 13 -27 17 -50 14
-7 -1 -28 7 -46 18 -18 12 -39 21 -45 21 -7 0 -23 13 -37 29 -21 26 -56 39
-115 46 -9 1 -29 11 -44 23 -15 12 -38 22 -51 22 -18 0 -24 6 -24 21 0 17 -3
19 -14 10 -8 -6 -18 -11 -22 -9 -18 5 -74 -21 -74 -35 0 -19 -6 -20 -290 -21
-559 -3 -793 -6 -788 -11 7 -7 177 -13 397 -14 90 -1 161 -4 158 -7 -8 -9
-2305 -9 -2313 -1 -4 3 -15 2 -25 -3 -10 -6 -20 -6 -23 -2 -3 5 -48 8 -100 8
-52 -1 -103 1 -113 5 -10 4 119 8 286 8 167 1 302 3 299 6 -3 3 -125 6 -272 7
-147 1 -269 5 -271 8 -2 4 3 19 11 34 7 16 14 39 14 52 0 24 1 24 105 24 l105
0 1 -32 1 -33 8 30 8 30 2 -35 3 -35 7 35 c7 32 15 17 11 -17 -1 -7 3 -13 9
-13 5 0 10 16 10 35 0 31 -3 35 -27 36 -16 1 -39 5 -53 9 -16 6 -3 7 36 3 61
-5 61 -5 69 23 l8 29 6 -25 c6 -21 13 -25 46 -25 l40 0 3 58 c4 77 26 72 30
-6 3 -51 5 -57 25 -57 20 0 22 -4 19 -40 -3 -33 -1 -39 11 -34 17 6 28 72 12
78 -5 2 0 5 11 5 19 1 22 9 30 79 4 42 7 80 6 85 -1 4 5 7 13 7 12 0 15 -16
15 -85 0 -84 0 -85 25 -85 17 0 29 8 36 23 l10 22 -5 -22 c-4 -20 0 -23 28
-23 l31 0 3 97 c4 106 6 113 28 113 11 0 14 -22 15 -112 1 -115 3 -119 14 -35
3 26 10 45 15 42 4 -3 11 1 13 7 3 7 6 -3 6 -22 1 -26 4 -31 11 -20 8 13 10
13 14 0 3 -8 6 -28 8 -45 3 -30 31 -46 49 -28 4 4 9 60 10 124 1 112 2 117 25
127 19 9 22 9 17 -4 -9 -24 7 -129 18 -113 7 11 10 9 16 -10 6 -23 7 -24 14
-5 6 16 8 14 10 -11 1 -16 2 -47 2 -67 l0 -38 44 0 43 0 1 68 c2 131 12 184
35 193 18 6 21 4 17 -12 -3 -10 -2 -45 2 -76 6 -47 9 -54 16 -35 16 43 24 21
21 -63 l-3 -85 25 0 26 0 2 115 c1 63 2 132 3 153 0 37 0 37 -42 40 -24 2 -43
0 -43 -5 0 -4 -16 -8 -35 -9 -19 0 -35 2 -35 5 0 3 -29 4 -65 3 -36 -2 -65 -7
-65 -10 0 -4 -19 -7 -41 -6 -23 0 -65 -3 -93 -8 -28 -5 -62 -11 -76 -13 -14
-2 -25 -5 -25 -6 0 -1 -9 -3 -20 -5 -48 -8 -102 -22 -130 -34 -16 -7 -34 -14
-40 -14 -20 -2 -120 -39 -125 -46 -3 -4 -15 -12 -27 -19 -16 -8 -24 -8 -29 1
-4 6 -3 8 4 4 6 -3 19 2 29 13 21 23 91 53 104 45 5 -3 9 -2 9 3 0 13 97 48
184 68 15 3 26 8 23 11 -17 17 -261 -71 -354 -127 -71 -43 -86 -44 -20 -2 23
15 44 30 47 33 10 11 162 79 189 85 9 2 35 10 57 18 89 32 317 69 515 83 82 5
87 5 137 -25 29 -17 65 -33 80 -37 15 -3 -3 9 -40 27 -57 27 -68 36 -68 57 l0
25 -162 -5 c-90 -3 -147 -1 -128 3 27 6 22 7 -20 4 -98 -9 -154 -16 -181 -25
-18 -5 -31 -4 -39 3 -10 9 -11 9 -6 0 5 -9 -2 -13 -23 -13 -17 0 -51 -7 -77
-16 -25 -8 -48 -13 -51 -10 -8 8 8 27 18 21 5 -4 9 -2 9 3 0 5 6 9 13 9 28 0
123 27 129 37 5 7 8 6 8 -4 1 -13 2 -13 13 0 7 8 23 15 37 16 14 0 44 3 68 7
27 4 41 3 37 -3 -3 -6 -1 -10 4 -10 6 0 11 7 11 15 0 18 16 20 23 3 4 -9 6 -8
6 2 1 10 11 15 33 14 18 0 59 2 90 6 36 4 62 2 69 -4 9 -8 10 -7 4 3 -6 11 -2
13 21 8 25 -4 26 -3 11 8 -9 7 -28 10 -42 8 -24 -5 -24 -5 -27 87 -3 81 -6 94
-23 104 -11 6 -23 15 -26 20 -4 5 -7 -41 -8 -102 -2 -108 -1 -111 21 -115 13
-2 -7 -5 -45 -6 l-67 -1 3 100 c4 102 11 126 27 100 6 -8 10 -10 10 -4 0 5 -5
15 -11 21 -9 9 -5 11 15 9 15 -2 29 1 32 5 6 11 54 8 54 -3 0 -4 5 -8 11 -8 5
0 7 5 3 12 -4 7 -3 8 4 4 8 -5 13 -46 14 -114 l2 -107 3 95 c4 124 8 140 36
140 18 0 19 -2 7 -10 -21 -13 -6 -12 24 1 21 10 30 9 52 -6 14 -9 23 -11 19
-4 -5 8 -4 10 3 5 8 -5 13 -45 14 -109 l2 -102 3 90 c4 110 10 145 24 124 5
-7 9 -9 9 -3 0 11 85 4 106 -8 6 -4 11 -51 13 -110 1 -56 4 -105 7 -107 2 -2
4 40 4 95 0 54 4 105 9 112 6 10 20 11 57 5 63 -11 74 -31 74 -145 0 -49 3
-88 8 -88 4 0 6 49 5 110 -1 60 1 110 4 110 3 0 12 -8 20 -17 8 -10 12 -12 8
-5 -8 15 -2 15 39 -2 41 -17 44 -26 51 -135 4 -62 2 -87 -7 -93 -10 -6 -9 -8
4 -8 9 0 18 -5 20 -10 2 -6 1 44 0 111 l-4 121 43 -23 c50 -28 58 -48 60 -165
2 -84 12 -123 22 -85 3 12 1 23 -4 26 -9 6 -10 195 0 195 3 0 19 -14 36 -31
26 -26 30 -39 33 -100 2 -38 7 -69 11 -69 3 0 4 27 3 61 -2 36 1 66 7 72 8 8
11 7 11 -3 0 -7 7 -21 15 -31 9 -9 20 -45 25 -80 l8 -64 -1 52 c-1 66 9 78 18
22 4 -25 10 -37 15 -29 11 18 24 -7 23 -45 l-2 -30 16 35 c22 47 21 126 -1
172 -21 43 -88 118 -106 118 -10 0 -9 -4 1 -17 8 -9 -4 -5 -25 10 -25 17 -41
36 -43 52 -3 19 0 23 12 19 11 -5 12 -10 4 -26 -9 -16 -8 -19 3 -15 7 2 12 10
10 16 -1 7 2 10 8 6 6 -3 8 -10 5 -15 -5 -8 25 -24 32 -16 2 2 -10 19 -28 37
-18 19 -35 32 -38 29 -3 -3 -9 13 -13 34 -5 22 -11 42 -15 45 -3 3 -3 -5 0
-19 9 -36 -6 -56 -24 -34 -12 15 -12 17 0 9 10 -6 12 -4 7 4 -5 7 -10 10 -13
7 -11 -11 -42 15 -37 29 4 8 10 13 14 10 16 -10 19 12 4 33 -12 18 -18 20 -39
10 l-24 -11 22 -18 c13 -11 17 -18 9 -19 -7 0 -10 -5 -7 -11 4 -5 -16 2 -44
16 -51 27 -67 40 -33 28 9 -3 26 -12 37 -20 11 -7 24 -13 30 -13 20 0 -61 43
-95 51 -19 4 -54 15 -78 23 -24 9 -67 17 -97 19 -29 1 -49 5 -43 8 14 9 -131
21 -252 22 -113 0 -214 -8 -270 -23 -19 -5 -53 -10 -75 -12 -22 -2 -43 -7 -47
-12 -6 -9 -19 -13 -64 -20 -12 -2 -37 -13 -57 -25 -19 -11 -41 -21 -48 -21
-15 1 94 60 120 65 9 2 31 11 50 21 19 9 47 17 63 16 19 0 28 4 25 11 -3 8 7
12 27 13 70 3 95 7 90 15 -3 5 2 6 11 2 10 -3 21 0 26 8 7 11 9 11 9 1 0 -10
8 -12 30 -7 20 4 37 2 47 -7 14 -11 16 -11 11 2 -5 13 4 15 66 9 75 -7 96 -4
96 15 0 6 5 3 11 -6 5 -10 21 -18 35 -18 14 0 35 -5 47 -12 19 -10 20 -9 10 4
-7 8 -10 18 -6 21 3 4 0 14 -8 24 -9 11 -10 14 -1 9 6 -4 12 -2 12 3 0 6 -4
11 -9 11 -4 0 -11 32 -15 70 -9 106 -50 200 -87 200 -6 0 0 -12 15 -26 30 -31
44 -73 52 -167 6 -63 6 -67 -12 -60 -11 4 -13 8 -6 11 16 5 15 55 0 70 -7 7
-13 20 -13 29 0 24 -18 26 -33 2 -12 -19 -11 -19 8 -9 20 11 21 10 11 -9 -14
-26 -14 -64 1 -79 16 -16 -4 -16 -22 1 -9 7 -7 2 3 -15 10 -16 13 -29 7 -33
-6 -3 -10 -3 -10 2 0 4 -4 2 -9 -6 -11 -18 -16 9 -31 162 -11 119 -13 127 -38
127 -13 0 -14 -2 -4 -9 18 -11 34 -81 18 -81 -7 0 -7 -3 -1 -8 6 -4 11 -34 13
-67 3 -50 0 -65 -17 -84 -12 -13 -21 -19 -21 -12 0 7 7 19 15 27 19 20 19 58
0 74 -8 7 -12 16 -9 21 13 21 -9 30 -27 10 -22 -23 -24 -32 -6 -26 8 4 12 -8
12 -40 0 -52 -17 -55 -26 -4 l-6 34 -2 -35 c0 -20 6 -45 14 -56 19 -28 8 -38
-17 -14 -19 17 -20 27 -14 128 3 61 9 117 12 126 4 10 1 16 -7 16 -10 0 -14
-13 -13 -45z m224 -489 c44 -4 60 -3 50 4 -8 5 -11 10 -6 10 5 0 18 -8 28 -17
14 -12 21 -14 30 -5 8 8 14 7 25 -3 7 -8 20 -12 28 -8 9 3 22 0 29 -6 10 -8
16 -9 21 -1 3 5 1 10 -6 10 -7 0 -9 3 -6 7 4 3 16 -3 28 -15 11 -13 25 -20 30
-16 5 3 15 1 22 -4 7 -5 27 -13 46 -17 27 -6 32 -4 26 6 -4 8 2 4 12 -9 15
-18 21 -20 32 -10 11 10 12 10 7 1 -4 -7 -5 -13 -2 -13 2 0 12 -3 22 -7 13 -5
15 -3 9 8 -5 8 6 -1 24 -18 18 -18 37 -33 42 -33 6 0 26 -11 46 -25 20 -13 41
-21 46 -18 6 3 7 2 4 -4 -4 -6 5 -21 18 -33 14 -13 25 -28 25 -34 0 -5 -15 5
-33 23 -81 82 -275 163 -473 196 -157 26 -389 26 -574 0 -25 -4 -42 -4 -39 0
9 8 113 24 204 31 39 3 71 7 72 7 3 4 151 -1 213 -7z m-430 -81 c7 -9 10 -18
6 -22 -3 -3 -6 -2 -6 4 0 6 -11 13 -24 15 -23 5 -23 3 -26 -71 -4 -142 -2
-135 -43 -142 -43 -7 -53 10 -41 64 4 17 6 56 5 85 -2 52 13 73 22 30 4 -19 5
-18 6 6 1 20 5 27 15 23 8 -3 17 1 20 9 7 19 50 18 66 -1z m-1498 -821 c6 -5
218 -5 403 1 55 2 93 2 83 -1 -23 -7 -29 -29 -17 -60 5 -15 7 -29 4 -32 -3 -3
-5 -1 -5 4 0 6 -7 19 -16 30 -13 16 -15 16 -10 2 3 -12 0 -18 -9 -18 -8 0 -15
-5 -15 -10 0 -6 -21 -11 -47 -11 -27 0 -171 -2 -320 -5 -271 -6 -273 -6 -273
14 0 12 5 24 10 27 6 3 10 16 10 29 0 12 3 26 7 29 8 8 187 9 195 1z m3270 -3
c2 -6 65 -11 140 -12 75 -1 141 -5 147 -8 5 -4 11 -19 13 -34 5 -38 22 -35 26
5 l3 33 76 -3 c58 -3 80 -8 89 -20 11 -15 8 -18 -29 -23 l-42 -6 48 -1 c26 -1
47 -1 47 1 0 1 -4 16 -9 33 -8 29 -8 30 21 26 21 -3 26 -7 17 -13 -11 -6 -10
-15 4 -43 l17 -36 -143 0 c-359 0 -575 -5 -571 -12 3 -4 74 -9 157 -9 84 -1
136 -4 117 -8 -28 -5 -241 -6 -298 -2 -9 1 -7 12 8 41 l21 40 -23 10 c-21 10
-21 10 5 5 28 -6 38 11 12 21 -8 4 -12 10 -9 15 7 12 151 12 156 0z m-273 -67
c2 -2 -457 -4 -1020 -4 -714 0 -1019 3 -1009 11 10 7 328 8 1020 4 553 -4
1007 -9 1009 -11z"/>
<path d="M4023 3052 c33 -20 70 -94 88 -175 13 -62 10 -74 -16 -59 -14 7 -15
10 -3 15 18 6 12 61 -7 77 -8 6 -11 18 -8 26 7 19 -14 18 -33 -1 -13 -13 -13
-15 -1 -15 9 0 14 -9 14 -22 -1 -13 2 -36 7 -53 7 -28 7 -29 -8 -10 -20 27
-20 6 0 -23 15 -22 15 -24 -2 -36 -17 -13 -17 -14 2 -19 10 -3 36 -9 57 -13
20 -3 37 -10 37 -15 0 -6 9 -5 20 1 14 7 20 7 20 0 0 -5 4 -10 9 -10 5 0 22
-5 38 -12 15 -7 33 -12 38 -13 6 -1 28 -10 50 -21 51 -26 85 -14 74 26 -5 19
-7 21 -8 6 -1 -16 -4 -17 -13 -8 -17 17 -29 15 -22 -3 4 -8 1 -15 -4 -15 -6 0
-14 17 -17 38 -14 83 -18 99 -42 145 -21 42 -25 46 -38 33 -17 -16 -20 -36 -6
-36 5 0 9 -12 9 -26 0 -29 21 -74 34 -74 11 0 0 60 -14 77 -5 7 -8 18 -5 25 5
16 37 -55 44 -101 l6 -34 -24 16 c-27 20 -49 23 -31 5 7 -7 12 -19 12 -27 0
-32 -30 28 -41 81 -18 90 -42 141 -88 191 -24 26 -47 47 -52 47 -4 0 12 -21
36 -46 24 -25 49 -62 56 -82 6 -20 15 -42 20 -48 11 -14 15 -67 5 -82 -4 -7
-2 -12 3 -12 6 0 11 -7 11 -15 0 -8 -6 -15 -13 -15 -8 0 -13 10 -12 23 1 12
-3 25 -9 29 -8 5 -7 8 2 8 16 0 15 29 -3 64 -8 15 -15 34 -15 42 0 22 -19 25
-30 5 -9 -17 -8 -19 5 -15 12 5 14 0 9 -24 -3 -16 0 -40 7 -53 11 -22 11 -23
-5 -10 -14 12 -16 12 -10 -3 3 -9 2 -16 -4 -16 -5 0 -12 23 -16 51 -11 78 -45
160 -83 197 -19 17 -40 32 -46 32 -7 0 1 -8 16 -18z"/>
<path d="M6153 2820 c-14 -6 -24 -21 -29 -45 -3 -20 -19 -47 -35 -63 -16 -15
-29 -36 -29 -47 -1 -32 -35 -97 -73 -140 -20 -21 -39 -52 -43 -68 -3 -16 -17
-54 -31 -85 -22 -50 -23 -61 -14 -94 7 -22 17 -35 24 -33 6 3 22 -11 35 -31
15 -22 29 -34 38 -30 25 10 15 -22 -17 -52 -21 -19 -30 -36 -26 -46 9 -23 33
-20 67 11 23 20 27 29 19 40 -9 10 -8 13 2 13 12 0 12 2 0 9 -40 25 37 59 120
52 20 -1 40 2 44 8 3 6 16 11 29 11 13 0 33 9 46 20 13 11 28 20 35 20 6 0 34
7 62 15 65 19 83 52 56 102 -23 42 -14 57 57 96 30 16 66 36 80 43 14 8 30 14
36 14 7 0 15 7 18 16 4 9 9 14 13 10 3 -3 14 7 24 23 14 24 15 36 7 77 -5 27
-15 55 -22 62 -7 7 -50 17 -97 22 -112 13 -116 13 -137 -7 -53 -53 -85 -73
-118 -73 -23 0 -34 5 -34 15 0 8 -9 20 -20 27 -12 8 -20 24 -20 40 0 16 -4 28
-9 28 -5 0 -12 11 -15 25 -7 27 -10 28 -43 15z"/>
<path d="M7350 2626 c0 -8 5 -18 10 -21 6 -3 10 -11 10 -16 0 -6 -12 3 -26 18
-24 26 -26 26 -20 6 6 -20 4 -23 -18 -23 -14 0 -28 -4 -31 -10 -10 -16 -35
-12 -35 5 0 11 -7 14 -24 9 -18 -4 -25 -1 -29 15 -3 12 -11 21 -17 21 -7 0
-10 -6 -7 -14 3 -7 -3 -20 -14 -29 -26 -23 -24 -37 6 -35 14 1 25 6 25 10 0 4
4 8 9 8 14 0 23 -33 10 -40 -8 -6 -8 -13 1 -30 7 -12 8 -20 2 -16 -12 7 -46
-30 -38 -42 3 -5 -6 -15 -19 -22 -14 -7 -25 -18 -25 -23 0 -6 -7 -19 -17 -29
-9 -10 -13 -21 -9 -25 4 -4 11 -1 16 6 6 11 9 11 11 -3 4 -14 8 -13 38 7 19
12 43 27 53 33 10 6 26 19 37 28 17 15 35 22 64 25 4 1 7 6 7 12 0 6 18 29 39
50 37 35 40 36 43 16 3 -24 38 -37 38 -14 0 8 7 20 15 27 16 13 20 57 7 75 -4
6 -20 12 -37 13 -16 1 -34 7 -39 12 -15 15 -36 12 -36 -4z"/>
<path d="M3816 2474 c-3 -9 -6 -44 -6 -79 0 -79 6 -95 36 -95 18 0 24 -7 30
-35 4 -22 17 -43 38 -58 31 -24 144 -63 154 -53 5 6 1 8 -70 27 -26 7 -45 16
-42 21 5 7 68 -12 106 -32 15 -9 61 -17 183 -35 22 -4 56 -10 75 -15 19 -5 53
-12 75 -15 50 -8 203 -68 270 -106 86 -48 156 -123 175 -188 10 -35 22 -32
-122 -34 -49 0 -88 -5 -88 -10 0 -5 7 -7 15 -3 11 4 15 -2 15 -25 0 -17 4 -28
9 -25 5 3 7 16 5 29 -3 16 -1 14 10 -8 14 -27 15 -28 16 -7 0 14 4 21 11 17 6
-4 8 -14 5 -22 -4 -8 -1 -11 5 -8 6 4 8 13 6 19 -3 7 -1 19 4 27 6 10 9 4 10
-21 0 -29 2 -31 9 -15 7 17 9 17 9 3 2 -31 21 -19 21 12 0 37 27 31 37 -9 l7
-26 7 25 7 25 1 -24 c1 -16 5 -21 15 -18 11 4 13 1 10 -11 -5 -14 -4 -15 5 -2
6 8 11 27 11 43 l0 27 83 -2 82 -2 -75 -6 -75 -6 82 -2 c54 -1 83 -6 86 -14 4
-8 6 -7 6 4 1 9 -5 19 -11 21 -10 4 -10 6 -1 6 7 1 22 -7 32 -16 11 -9 30 -18
43 -19 107 -12 133 -12 171 0 87 28 123 34 279 50 15 2 33 8 40 13 16 14 90
-16 84 -33 -3 -7 3 -10 15 -7 10 3 19 9 19 14 0 18 44 27 55 12 9 -12 14 -11
29 6 11 12 25 21 32 21 12 0 48 32 85 76 9 10 26 27 38 36 28 23 27 44 -4 64
-26 17 -44 15 -145 -12 -99 -27 -125 -37 -149 -55 -13 -11 -34 -19 -47 -19
-13 0 -42 -7 -64 -16 -33 -13 -46 -14 -63 -5 -15 8 -37 9 -70 2 -26 -5 -49
-10 -50 -12 -21 -39 -27 -44 -53 -42 -15 1 -32 9 -36 18 -18 30 -173 17 -181
-16 -7 -27 -49 -41 -63 -23 -8 9 -13 11 -16 4 -2 -6 -36 -13 -76 -16 -69 -5
-72 -5 -72 17 0 35 -45 103 -102 154 -47 41 -105 73 -228 128 -101 44 -322 93
-463 102 -79 5 -157 28 -157 47 0 4 18 -1 41 -12 23 -12 43 -19 46 -16 3 2
-12 14 -34 25 -64 34 -73 44 -35 37 20 -4 31 -2 27 4 -3 6 -23 10 -44 10 -55
0 -64 17 -62 107 2 54 -1 78 -11 84 -21 14 -45 10 -52 -7z"/>
<path d="M7166 2225 c-3 -8 -15 -15 -26 -15 -11 0 -20 -4 -20 -10 0 -5 -10
-10 -23 -10 -13 0 -32 -8 -43 -17 -21 -19 -51 -39 -71 -49 -7 -3 -34 -26 -60
-51 -43 -40 -101 -75 -120 -72 -3 0 -10 -6 -15 -15 -5 -9 -14 -16 -21 -16 -28
0 -86 -21 -106 -39 -12 -10 -49 -29 -84 -41 -157 -56 -227 -93 -288 -153 -36
-35 -36 -47 -3 -72 64 -48 144 -41 289 25 33 15 71 30 85 34 91 26 246 103
270 134 11 15 25 33 31 40 6 7 9 25 6 40 -3 17 3 38 19 61 13 20 24 40 24 46
0 11 10 20 105 99 65 54 75 65 75 84 0 17 -17 15 -24 -3z"/>
<path d="M3880 1945 c0 -119 3 -154 13 -152 8 1 14 30 18 82 4 44 10 94 13
110 4 17 9 40 12 53 2 12 11 22 19 22 11 0 15 -12 15 -50 0 -36 5 -52 18 -59
9 -6 11 -11 5 -11 -9 0 -13 -22 -13 -76 0 -74 1 -76 23 -70 12 3 30 6 40 6 14
0 17 10 17 64 0 36 -4 68 -10 71 -5 3 -10 11 -10 17 0 7 5 6 15 -2 9 -8 15
-36 18 -83 l3 -72 2 82 c2 76 3 82 25 85 12 2 23 10 23 18 1 8 2 25 3 38 1 13
7 22 17 22 9 0 12 5 8 13 -4 7 -3 8 2 4 9 -9 10 -25 13 -174 l1 -93 26 0 c26
0 26 0 22 70 -2 39 0 70 4 70 4 0 8 -29 8 -64 0 -36 5 -68 10 -71 8 -5 10 18
8 69 -3 66 -1 76 14 76 20 0 42 -35 34 -55 -3 -8 -1 -17 4 -20 6 -4 10 19 10
57 0 63 10 95 27 85 4 -3 10 -52 12 -108 1 -57 5 -107 7 -111 3 -5 -4 -8 -15
-8 -12 0 -21 -5 -21 -11 0 -6 7 -9 15 -6 8 4 17 2 20 -4 11 -16 25 1 21 24
-10 49 -17 111 -11 106 3 -4 9 -26 14 -50 l9 -44 1 53 c1 43 4 52 19 52 21 0
46 -36 32 -45 -6 -3 -10 -18 -9 -33 0 -24 1 -25 9 -7 7 18 8 19 15 3 14 -35
20 -17 20 64 0 107 21 120 31 18 6 -61 8 -68 20 -53 13 17 13 17 14 1 0 -10 5
-18 11 -18 8 0 8 -4 0 -14 -9 -11 -9 -16 0 -21 6 -4 15 -2 19 5 5 9 9 9 14 1
16 -25 25 -8 28 49 2 33 8 60 13 60 6 0 11 -27 13 -60 l3 -60 38 0 c35 0 37 2
35 29 -1 18 4 32 12 35 10 4 14 -4 14 -29 0 -35 0 -35 46 -35 43 0 45 1 33 17
-25 31 -64 62 -77 63 -7 0 -11 4 -7 9 3 5 -20 23 -50 39 -30 17 -52 25 -49 19
3 -7 -1 -5 -8 4 -7 9 -42 26 -78 38 -36 13 -72 27 -81 31 -20 10 -90 25 -103
22 -4 -2 -14 3 -22 9 -8 7 -17 9 -21 6 -3 -4 -12 -2 -18 3 -7 6 -41 13 -76 15
-35 2 -64 5 -64 6 0 1 -11 3 -25 4 -14 2 -49 8 -78 14 -36 7 -60 8 -72 1 -13
-7 -21 -7 -25 0 -4 7 -13 7 -26 0 -13 -7 -19 -7 -19 0 0 5 -9 10 -20 10 -19 0
-20 -7 -20 -155z"/>
<path d="M0 1188 c1 -175 5 -289 12 -301 7 -14 7 -17 -1 -13 -8 5 -11 -15 -11
-63 l0 -71 113 -1 c61 -1 120 -1 129 0 10 1 18 -3 18 -9 0 -8 -18 -11 -54 -8
-30 1 -53 0 -51 -3 2 -3 -32 -4 -75 -1 l-80 5 0 -212 c0 -237 -9 -214 82 -211
29 1 48 -3 48 -9 0 -6 -4 -11 -10 -11 -5 0 -34 -9 -65 -21 l-55 -20 0 -71 c0
-65 2 -70 19 -65 12 3 22 -1 25 -9 3 -8 18 -14 33 -13 l28 1 -27 12 c-38 16
-23 41 16 26 15 -5 37 -10 49 -9 12 1 2 6 -22 13 -25 6 -46 18 -49 26 -3 12
-1 12 6 2 7 -10 15 -10 37 -2 21 8 30 8 36 -1 4 -8 38 -14 81 -17 40 -2 87 -7
103 -12 18 -5 -8 -6 -69 -3 -61 3 -96 1 -92 -5 3 -5 22 -7 42 -5 20 2 41 -1
48 -6 22 -19 142 -18 130 1 -4 7 -3 8 4 4 7 -4 12 -2 12 3 0 6 12 11 28 12
l27 1 -25 8 c-22 8 -21 9 10 7 43 -2 43 -20 0 -28 -39 -8 -48 -17 -30 -30 10
-6 -18 -9 -85 -10 -241 0 -335 -4 -335 -11 0 -4 12 -9 28 -9 l27 -1 -30 -7
c-27 -6 -25 -8 23 -14 57 -8 421 2 420 12 -2 24 3 33 15 24 18 -15 79 -34 72
-23 -4 6 9 10 30 10 22 0 34 -4 30 -10 -3 -5 0 -10 9 -10 8 0 16 5 18 11 3 9
10 9 26 0 27 -15 29 0 2 19 -19 14 -19 15 -1 35 10 11 22 30 25 42 9 27 104
82 160 92 40 6 41 8 42 47 0 22 3 45 7 50 3 6 9 34 13 62 6 48 9 52 33 51 l26
-1 -25 -7 c-23 -7 -22 -8 13 -12 25 -3 37 -1 37 7 0 7 8 15 18 17 9 3 -11 5
-45 6 -70 1 -94 -5 -87 -24 7 -17 -27 -25 -119 -25 l-77 0 6 40 7 40 -45 0
c-44 0 -44 0 -46 -37 -2 -21 -5 -40 -8 -43 -9 -8 -127 0 -140 11 -6 5 -10 31
-8 62 l3 52 -10 -45 c-14 -58 -35 -81 -71 -78 -15 1 -28 4 -28 6 0 3 11 75 24
161 14 86 28 177 31 203 6 46 7 47 36 44 16 -2 29 0 29 4 0 4 10 10 22 13 23
7 41 -10 31 -28 -3 -5 3 -1 14 10 11 11 18 24 15 29 -3 5 0 6 7 2 9 -6 9 -11
-1 -24 -11 -13 -8 -12 14 2 15 10 26 26 25 37 -1 12 -5 15 -11 9 -14 -14 -29
-12 -20 3 5 8 2 8 -9 -2 -14 -11 -20 -11 -33 0 -13 10 -17 10 -24 0 -4 -8 -13
-10 -19 -7 -6 4 -11 2 -11 -4 0 -6 -5 -8 -10 -5 -6 4 -7 12 -3 18 5 9 3 9 -8
1 -8 -6 -57 -12 -109 -13 -62 -1 -90 2 -81 8 8 5 33 8 55 6 40 -3 91 18 65 27
-8 3 -10 11 -5 24 7 18 8 18 21 1 13 -18 13 -18 18 0 4 15 5 14 6 -4 1 -22 21
-44 21 -23 0 7 147 10 496 10 273 -1 499 1 502 4 3 3 -223 6 -502 6 -499 0
-507 0 -489 19 17 19 36 19 663 14 354 -4 636 -10 625 -14 -19 -7 -19 -8 1 -8
25 -1 34 16 34 65 l0 34 -107 2 c-60 1 -135 2 -168 2 -33 1 -65 5 -72 9 -6 4
-14 3 -18 -2 -7 -13 -45 -10 -45 4 0 5 -5 3 -10 -5 -5 -8 -10 -10 -10 -5 0 7
-156 9 -452 7 l-452 -3 22 24 c12 13 22 30 22 38 0 11 13 13 62 11 35 -2 69
-9 77 -15 11 -9 13 -9 8 0 -4 6 -3 14 3 18 5 3 10 -3 10 -14 0 -21 18 -24 133
-24 9 0 17 -4 17 -9 0 -5 4 -6 10 -3 6 3 10 13 10 21 0 8 -4 12 -10 9 -6 -3
-10 -2 -10 3 0 14 35 21 51 11 11 -7 10 -9 -3 -9 -11 0 -18 -8 -18 -19 0 -23
16 -36 25 -21 4 6 10 8 14 6 4 -3 5 9 3 27 -5 32 -4 32 16 14 20 -18 20 -18
25 0 3 12 5 9 6 -9 0 -15 5 -29 10 -32 4 -3 6 6 3 19 l-4 25 101 0 c90 0 101
-2 101 -17 0 -15 -2 -16 -10 -3 -8 12 -10 12 -11 -5 l0 -20 -9 20 c-7 15 -9
16 -9 4 -1 -9 6 -22 14 -29 13 -11 18 -10 29 6 8 10 12 22 10 26 -3 5 -2 13 2
19 10 17 25 -12 18 -35 -4 -12 -2 -16 5 -12 6 4 11 13 11 21 0 8 4 16 9 19 5
4 7 -4 3 -16 -3 -14 -2 -19 6 -14 7 4 12 14 12 22 0 16 16 19 24 5 4 -5 0 -12
-6 -14 -7 -3 19 -6 59 -6 47 -1 73 -5 76 -13 4 -10 6 -9 6 1 1 11 4 11 18 0
11 -9 14 -10 9 -2 -5 10 9 12 58 11 48 -1 63 -5 59 -15 -3 -7 -1 -13 5 -13 10
0 22 22 28 48 3 18 14 28 14 14 0 -16 27 -15 34 1 4 6 4 2 2 -10 -3 -15 1 -23
10 -23 8 0 11 6 7 16 -4 12 -2 15 8 12 8 -3 13 -12 12 -19 -2 -10 7 -16 27
-17 24 -2 30 2 30 18 0 17 6 21 28 19 50 -4 72 1 72 15 0 10 -7 12 -22 8 -14
-3 -19 -2 -14 6 4 7 1 12 -8 12 -9 0 -16 -4 -16 -10 0 -5 -7 -10 -15 -10 -8 0
-14 5 -13 12 2 7 -7 13 -20 14 -12 1 -26 5 -30 9 -4 4 28 5 71 2 42 -3 77 -2
77 3 0 9 -85 30 -128 31 -27 0 -27 0 -4 10 13 5 21 13 17 18 -3 5 -1 12 5 16
6 4 5 12 -5 21 -19 20 -19 33 0 41 14 5 14 8 2 22 -8 9 -16 23 -19 32 -4 9
-33 23 -71 33 -54 15 -68 15 -85 5 -18 -11 -24 -10 -41 5 -12 11 -21 14 -21 8
0 -6 -6 -9 -14 -6 -14 5 -46 -6 -126 -45 -43 -21 -54 -65 -21 -88 30 -21 17
-33 -35 -33 -24 0 -44 -4 -44 -10 0 -5 -11 -10 -24 -10 -14 0 -28 -4 -31 -10
-3 -5 -1 -10 6 -10 10 0 10 -3 1 -12 -17 -17 -15 -28 6 -28 14 0 15 -2 2 -10
-17 -11 -498 -14 -525 -4 -13 5 -14 8 -3 15 8 5 -17 9 -62 10 -53 1 -66 3 -45
8 29 7 28 7 -12 12 -24 2 -43 1 -43 -3 0 -5 -7 -8 -15 -8 -8 0 -15 6 -15 13 0
9 -2 9 -9 -1 -6 -10 -23 -5 -77 23 -38 21 -74 43 -80 51 -13 17 -34 18 -34 3
0 -8 -5 -7 -15 1 -9 8 -12 17 -7 22 11 11 3 58 -9 58 -5 0 -9 6 -9 14 0 7 -21
21 -46 31 -25 9 -48 24 -51 31 -3 8 -13 12 -23 9 -9 -3 -24 3 -35 15 -44 48
-45 37 -45 -262z m558 -807 c43 -1 43 -1 40 -33 -3 -33 -4 -33 -58 -35 -30 -1
-64 -2 -74 -2 -11 -1 -16 -4 -12 -8 4 -4 75 -8 159 -9 145 -2 197 -8 197 -23
0 -4 -42 -8 -92 -10 -51 -1 -112 -7 -136 -12 -44 -10 -67 -5 -57 12 4 5 -6 8
-22 8 -15 -1 -21 -3 -13 -5 9 -3 21 -14 29 -25 7 -12 8 -18 2 -14 -6 3 -11 2
-11 -3 0 -5 -24 -9 -52 -10 l-53 -1 40 13 c22 7 47 11 55 8 8 -2 4 5 -10 17
-14 11 -26 16 -28 11 -2 -5 -10 -6 -19 -3 -11 4 -14 2 -9 -5 10 -16 -6 -15
-23 1 -11 9 -13 9 -7 0 10 -18 -12 -16 -30 2 -14 13 -13 15 3 17 10 0 24 1 31
1 8 -1 11 5 8 14 -4 10 -2 13 8 10 11 -5 17 5 22 38 6 43 19 55 54 49 8 -1 34
-3 58 -3z"/>
<path d="M3225 1451 c3 -5 0 -13 -6 -17 -6 -3 -15 0 -20 7 -6 10 -9 6 -9 -13
0 -16 4 -28 9 -28 5 0 9 -43 10 -96 2 -112 7 -130 28 -112 11 9 16 9 23 -2 9
-15 14 8 25 113 4 33 11 57 18 57 7 0 6 4 -3 10 -12 8 -10 10 10 11 l25 1 -25
7 -25 7 25 7 c13 3 29 2 34 -3 5 -5 8 -48 7 -96 -2 -76 0 -86 12 -75 8 6 24
14 36 16 18 3 21 -1 22 -28 1 -24 3 -26 6 -9 8 41 23 23 23 -28 l0 -50 65 0
c62 0 65 1 65 25 0 13 5 35 11 48 14 30 46 25 51 -7 2 -11 7 21 12 72 5 59 12
92 19 92 7 0 6 4 -3 10 -12 8 -11 10 8 10 12 0 22 4 22 9 0 5 -10 7 -22 5 -21
-4 -21 -4 -3 5 39 17 48 -1 46 -83 l-2 -76 30 6 c28 6 31 4 32 -17 0 -22 1
-22 8 -4 6 15 10 5 15 -37 l7 -58 72 1 c40 0 66 3 59 6 -6 2 -9 10 -5 16 8 13
10 19 12 42 1 17 36 21 46 5 4 -6 7 -41 7 -78 0 -37 3 -87 7 -112 5 -30 9 20
13 150 4 128 10 196 17 198 6 2 9 8 5 13 -3 5 3 9 13 10 13 1 11 3 -7 9 -17 5
-19 8 -7 9 9 1 17 8 17 17 0 8 -5 12 -11 8 -8 -4 -8 0 0 15 14 25 8 27 -14 5
-13 -14 -18 -14 -28 -3 -9 11 -41 13 -139 11 -119 -3 -128 -5 -128 -23 0 -10
-4 -19 -10 -19 -5 0 -10 6 -10 14 0 8 -5 18 -12 22 -8 5 -9 2 -5 -10 5 -12 3
-16 -5 -13 -7 2 -12 12 -12 21 2 20 -1 20 -21 0 -14 -14 -18 -14 -28 -2 -9 10
-39 13 -139 10 -118 -3 -128 -5 -128 -23 0 -10 -4 -19 -10 -19 -5 0 -9 3 -9 8
3 18 -2 32 -12 32 -6 0 -9 -6 -6 -14 3 -8 1 -17 -6 -19 -15 -5 -67 20 -67 33
0 6 -9 10 -21 10 -11 0 -18 -4 -14 -9z"/>
<path d="M4238 1452 c-121 -2 -127 -4 -134 -25 -7 -22 -7 -22 -17 3 l-10 25
-5 -24 c-2 -13 2 -27 8 -31 6 -4 11 -10 11 -14 -1 -3 -1 -38 -1 -76 0 -58 3
-72 18 -77 23 -9 31 -23 33 -58 2 -23 4 -20 9 15 l7 45 1 -52 2 -53 70 0 c39
0 69 3 69 8 -5 27 25 48 49 33 6 -3 11 -98 14 -233 l4 -228 -33 0 c-30 0 -33
3 -34 30 -2 53 -4 55 -28 55 -31 0 -38 21 -15 46 13 15 19 16 26 7 5 -8 8 -1
8 19 0 63 -83 84 -108 27 -10 -20 -10 -25 0 -22 7 3 13 11 13 19 0 18 38 24
64 9 31 -16 7 -50 -36 -50 -32 0 -33 -2 -33 -39 0 -37 2 -40 33 -44 27 -3 26
-4 -7 -3 -23 0 -41 -5 -44 -12 -2 -6 1 -12 7 -12 6 0 11 -7 11 -15 0 -8 -9
-15 -20 -15 -15 0 -20 7 -21 28 l-1 27 -8 -30 c-4 -16 -8 -47 -9 -67 l-1 -38
65 0 c55 0 65 -3 65 -18 0 -9 -10 -23 -21 -31 -18 -10 -19 -15 -8 -22 8 -5 10
-9 4 -10 -5 0 -19 -3 -30 -5 -11 -3 -75 -5 -142 -4 -67 0 -124 -4 -127 -8 -3
-5 20 -6 50 -4 38 3 54 1 54 -8 0 -9 3 -10 13 -1 10 8 17 7 27 -2 7 -6 10 -7
7 -1 -4 7 5 9 24 6 16 -2 29 -10 29 -18 0 -17 -12 -18 -27 -3 -8 8 -13 8 -17
0 -4 -6 0 -11 8 -11 9 0 16 -8 16 -17 0 -15 2 -14 15 3 15 19 15 19 30 0 13
-17 15 -18 15 -3 0 9 7 17 15 17 8 0 15 -9 15 -21 0 -11 5 -17 10 -14 6 3 10
22 10 41 l0 34 55 0 c32 0 55 -4 55 -11 0 -5 5 -7 11 -3 6 4 133 9 282 11 262
5 271 4 257 -14 -22 -28 -24 -29 -17 -12 4 12 1 16 -12 12 -15 -4 -17 -9 -8
-27 10 -21 13 -22 27 -8 13 14 15 14 18 -1 2 -9 10 -17 18 -17 12 0 14 10 12
41 l-3 41 -278 -1 -277 -2 -34 26 c-18 14 -38 25 -45 25 -7 0 -9 5 -6 10 4 6
2 17 -5 25 -8 10 -8 15 1 21 8 4 9 3 5 -4 -5 -9 9 -12 49 -12 l57 0 -6 83
c-13 165 -12 435 2 448 8 9 12 44 12 100 0 49 5 91 10 94 6 4 8 11 5 16 -4 5
5 9 19 9 25 0 26 -2 27 -72 1 -72 15 -154 18 -113 2 19 3 19 11 -1 14 -35 23
-454 10 -454 -7 0 -5 -6 4 -15 16 -17 30 -20 21 -6 -3 5 3 12 12 14 17 4 17 5
1 6 -20 1 -25 21 -5 21 9 0 9 2 1 8 -16 9 -31 401 -17 411 8 5 23 116 26 189
0 6 12 13 26 13 25 1 25 2 -4 9 -16 4 -22 8 -12 9 9 0 17 8 17 17 0 8 -5 12
-11 8 -8 -4 -8 0 0 15 14 25 8 27 -13 5 -16 -16 -41 -10 -31 7 10 15 -12 10
-30 -7 -12 -13 -19 -14 -30 -4 -12 10 -15 9 -15 -9 0 -21 -1 -21 -17 -6 -14
14 -14 18 -2 26 9 6 10 9 2 9 -7 0 -17 -8 -22 -17 -10 -16 -12 -16 -23 -3 -11
12 -37 14 -140 12z"/>
<path d="M4911 1443 c-8 -15 -12 -16 -22 -5 -9 8 -52 12 -140 12 -123 0 -127
-1 -134 -22 -6 -20 -8 -20 -12 -5 -6 23 -18 22 -20 -3 -1 -11 2 -20 7 -20 4 0
10 -37 12 -82 2 -53 8 -83 16 -86 6 -2 13 -16 13 -30 1 -27 1 -27 9 3 7 28 8
27 9 -12 l1 -43 54 0 c34 0 56 5 59 13 3 7 6 5 6 -5 1 -14 -10 -18 -56 -21
l-58 -3 60 -2 c43 -2 56 -5 45 -12 -11 -7 -7 -10 17 -10 17 0 34 6 36 13 3 6
6 3 7 -8 4 -71 10 -115 19 -138 7 -18 7 -28 -1 -33 -8 -5 -6 -11 5 -19 9 -6
14 -20 12 -31 -2 -10 -4 -45 -4 -77 -1 -36 -5 -56 -11 -52 -5 3 -10 31 -10 61
0 30 -4 54 -9 54 -4 0 -8 -38 -7 -85 1 -47 -2 -85 -6 -85 -5 0 -8 33 -9 73 -1
89 -4 106 -22 124 -15 15 -90 36 -82 23 3 -4 -2 -13 -10 -20 -8 -7 -15 -21
-15 -32 0 -19 1 -19 27 1 25 20 27 21 46 4 19 -18 19 -18 -17 -21 -33 -3 -36
-6 -36 -35 0 -24 -3 -28 -10 -17 -6 9 -10 10 -10 3 0 -6 5 -15 11 -19 7 -4 8
-9 1 -13 -6 -3 -14 -39 -17 -79 l-8 -72 132 0 133 0 -3 46 c-2 31 1 48 11 54
8 6 11 10 5 10 -5 0 -10 17 -11 38 0 20 -4 157 -9 303 -6 199 -5 268 4 273 6
4 9 12 6 17 -4 5 3 9 14 9 15 0 21 -9 25 -37 8 -53 35 -409 39 -517 3 -84 5
-90 34 -116 l30 -27 -46 2 c-44 3 -46 4 -52 36 -6 33 -6 33 -8 -9 0 -24 -6
-52 -11 -63 -6 -10 -7 -19 -2 -19 4 0 8 -9 8 -20 0 -11 -6 -20 -13 -20 -8 0
-12 -10 -11 -25 2 -23 6 -25 55 -25 29 0 53 -3 53 -7 0 -5 111 -7 247 -5 249
3 299 0 288 -18 -3 -6 -1 -10 4 -10 6 0 11 -8 11 -18 0 -11 8 -18 21 -19 19
-2 20 2 14 38 l-7 39 56 0 c31 0 56 -4 56 -9 0 -4 12 -6 28 -3 49 10 508 13
493 3 -9 -6 -10 -11 -2 -15 6 -4 11 -16 11 -26 0 -13 7 -18 20 -17 16 1 20 8
20 42 l0 40 -252 -3 c-264 -4 -318 0 -318 23 0 7 -13 16 -30 20 -16 4 -30 7
-31 8 0 1 -6 38 -14 82 l-13 80 -1 -80 c-1 -75 -4 -82 -31 -109 l-30 -29 -248
-5 c-155 -2 -260 0 -282 7 l-35 10 40 -1 c96 -2 95 -3 95 46 0 26 -5 46 -12
49 -7 3 -3 6 10 6 21 1 32 20 12 22 -5 1 -13 2 -17 3 -5 1 -25 5 -46 10 -35 6
-38 10 -33 32 4 14 2 91 -4 172 -5 81 -12 220 -15 309 l-6 162 28 8 28 7 -25
7 -25 7 28 1 c19 1 27 -4 27 -16 0 -13 3 -14 8 -6 4 7 8 25 7 40 0 16 4 31 10
35 6 5 3 8 -7 8 -9 0 -21 -12 -26 -27 -6 -16 -11 -22 -11 -15 -1 8 -6 10 -13
6 -9 -5 -8 -2 1 9 18 23 8 33 -12 12 -19 -18 -27 -19 -27 -2 0 7 -13 12 -31
13 -17 1 -26 -2 -20 -5 6 -4 7 -12 1 -21 -7 -10 -10 -11 -10 -2 0 19 -20 14
-20 -5 -1 -17 -1 -17 -11 0 -5 9 -7 22 -4 27 3 6 2 10 -4 10 -5 0 -14 -8 -20
-17z"/>
<path d="M6793 1043 c6 -9 -18 -12 -95 -11 -57 0 -252 0 -434 -1 l-331 -1 2
-28 c1 -16 5 -34 9 -40 6 -10 146 -11 618 -6 336 3 613 2 617 -2 3 -5 17 -18
30 -29 20 -16 23 -17 18 -4 -5 14 1 16 31 14 20 -2 49 -4 65 -4 24 -1 27 -5
27 -34 l0 -33 -56 -2 c-50 -2 -56 0 -52 15 4 14 -1 18 -19 18 -20 0 -21 -2 -8
-11 19 -14 19 -24 0 -24 -8 0 -15 5 -15 11 0 8 -4 8 -14 0 -11 -9 -16 -9 -21
0 -6 8 -10 7 -17 -2 -7 -11 -11 -11 -15 -1 -2 6 -11 12 -19 12 -9 0 -12 -5 -9
-11 9 -13 -27 -8 -37 5 -4 6 -13 4 -22 -3 -11 -9 -16 -10 -16 -2 0 7 -31 10
-97 9 l-98 -2 81 -3 81 -4 21 -42 c12 -23 22 -34 22 -24 0 9 5 18 10 18 20 3
25 4 38 13 16 10 40 -9 45 -37 4 -22 4 -22 6 1 1 15 7 22 21 22 11 0 23 6 26
13 3 8 12 14 20 14 9 0 11 -4 5 -10 -5 -5 -6 -17 -4 -28 5 -16 15 -19 77 -19
67 -1 69 -2 46 -15 -14 -8 -44 -14 -67 -15 -25 0 -43 -5 -43 -11 0 -6 7 -9 15
-5 9 3 15 0 15 -9 0 -9 -6 -12 -16 -8 -14 5 -15 -1 -9 -48 4 -30 15 -94 25
-144 9 -49 15 -93 13 -97 -2 -5 -58 -8 -123 -8 l-119 0 -3 33 c-2 17 -6 31
-10 30 -5 -2 -23 -3 -42 -3 l-33 0 8 -42 c4 -24 8 -46 9 -50 0 -5 16 -8 35 -8
33 0 35 -2 35 -33 0 -30 -2 -32 -35 -33 -37 0 -38 1 -50 66 -11 61 -15 68 -43
76 -44 12 -48 12 -90 4 -22 -4 -48 -3 -57 3 -14 7 -16 7 -9 -4 6 -12 5 -12 -8
-1 -11 9 -18 10 -23 2 -8 -13 -72 -13 -80 0 -3 6 0 13 8 16 11 4 13 14 8 37
-15 75 -19 71 119 78 l125 5 -137 1 c-123 1 -143 -1 -195 -23 -46 -19 -77 -24
-147 -24 -110 0 -109 -9 2 -13 45 -1 84 -6 88 -10 4 -4 20 -7 36 -7 15 0 28
-5 28 -11 0 -8 5 -8 15 1 8 7 12 17 8 24 -3 6 0 5 8 -3 11 -10 11 -15 2 -18
-19 -7 -15 -21 5 -18 9 1 11 0 5 -2 -16 -6 -17 -33 -1 -33 6 0 3 -6 -8 -14
-10 -8 -21 -11 -24 -6 -3 4 -21 0 -42 -10 -22 -11 -41 -14 -50 -9 -21 13 -81
11 -72 -3 4 -6 3 -9 -2 -6 -5 3 -31 2 -57 -2 -26 -4 -50 -3 -53 2 -3 4 -10 8
-15 8 -6 0 -7 -4 -4 -10 4 -6 -33 -11 -102 -12 l-108 -2 98 -3 c53 -2 97 -8
97 -13 0 -6 9 -10 20 -10 11 0 20 -7 20 -15 0 -8 4 -15 9 -15 4 0 6 12 3 27
-5 26 -5 26 43 20 26 -4 62 -7 79 -7 l31 -1 -30 -14 -30 -13 48 -1 c27 -1 57
-5 67 -11 21 -11 21 -37 -1 -51 -12 -8 -12 -10 0 -18 7 -5 10 -14 7 -20 -4 -6
-1 -11 6 -11 8 0 6 -5 -5 -11 -9 -6 -15 -14 -13 -18 3 -5 -7 -14 -22 -21 -21
-10 -23 -14 -10 -17 9 -2 30 3 47 11 41 22 41 21 41 -23 0 -29 -7 -48 -25 -67
-14 -15 -28 -24 -32 -20 -4 3 2 13 13 21 18 14 18 14 -10 15 -25 0 -28 3 -22
26 6 21 4 25 -11 22 -12 -2 -18 -14 -19 -41 -1 -20 1 -37 5 -37 14 0 7 -65 -8
-77 -13 -10 -7 -12 36 -13 28 0 63 4 77 10 18 6 26 6 26 -1 0 -6 7 -8 15 -5
26 10 632 16 610 6 -15 -6 -8 -9 30 -9 59 -1 97 8 89 20 -3 5 23 8 58 7 l63
-1 -55 -7 -55 -7 61 -1 c60 -2 84 8 84 36 0 7 -4 11 -9 8 -5 -3 -51 -3 -102 1
-52 3 -89 8 -82 10 7 3 9 11 6 19 -4 11 9 14 75 14 62 0 81 -3 86 -15 3 -8 10
-15 16 -15 7 0 10 130 10 394 0 385 0 395 -20 401 -11 3 -24 3 -30 0 -5 -3
-10 -1 -10 5 0 7 -6 8 -16 2 -24 -13 -54 -3 -54 18 0 10 -3 27 -7 37 -6 16 -5
17 11 4 14 -12 19 -12 25 -2 5 8 24 12 51 10 28 -2 45 1 48 9 3 9 -33 12 -148
12 l-152 0 27 31 c14 17 24 33 22 35 -2 2 -100 4 -218 5 -141 1 -219 5 -228
13 -11 8 -13 8 -8 -1z m27 -604 c0 -7 11 -9 27 -6 46 9 71 -11 79 -59 3 -23 3
-47 -1 -53 -4 -8 33 -11 121 -11 70 0 125 -3 121 -6 -3 -3 -60 -6 -126 -7 -67
0 -121 -3 -121 -6 1 -18 21 -29 68 -35 33 -4 52 -3 52 4 0 13 167 13 175 0 4
-6 -9 -10 -32 -11 -38 -1 -38 -1 -9 -9 16 -5 32 -7 36 -5 3 2 6 -4 6 -14 0
-16 -4 -16 -40 -3 -22 7 -51 10 -64 7 -13 -3 -30 -1 -38 6 -8 7 -17 9 -20 6
-13 -13 109 -67 127 -56 22 14 35 10 14 -4 -16 -13 -14 -16 29 -36 50 -25 57
-39 27 -58 -16 -10 -32 -5 -100 28 -45 23 -88 42 -97 43 -8 1 -23 9 -33 17 -9
8 -24 15 -31 17 -7 2 -26 12 -41 23 -27 19 -55 20 -106 4 -13 -4 -23 -11 -23
-16 0 -13 -34 -28 -77 -34 -66 -9 -85 -15 -101 -32 -15 -15 -18 -13 -30 17 -7
18 -14 58 -15 88 -2 56 -2 57 53 81 24 10 23 11 -7 5 -29 -5 -33 -2 -39 21 -8
34 2 44 21 19 9 -12 14 -14 15 -6 0 7 4 11 9 8 5 -4 8 5 7 18 -5 39 9 50 57
47 10 0 15 -6 11 -12 -3 -6 -15 -9 -25 -6 -10 3 -22 1 -25 -4 -3 -5 11 -9 30
-9 30 0 35 -4 39 -27 2 -16 5 -4 6 25 l1 52 35 0 c19 0 35 -5 35 -11z m73
-275 c10 -20 15 -45 11 -56 -4 -13 -2 -18 4 -14 6 3 13 0 15 -6 3 -7 6 -3 6 9
1 12 5 24 10 27 10 6 61 -16 61 -26 0 -5 6 -8 14 -8 11 0 14 10 11 38 -4 34
-4 34 4 7 l8 -30 11 25 11 25 0 -27 c1 -16 6 -28 12 -28 6 0 9 7 5 15 -3 8 -1
15 4 15 11 0 12 -6 4 -37 -4 -13 -11 -20 -20 -16 -8 3 -14 0 -14 -7 0 -13 191
-10 225 4 11 5 3 -4 -18 -19 l-39 -27 -329 -1 c-261 -1 -332 2 -341 12 -11 11
-10 14 0 18 6 3 10 9 6 14 -3 5 20 9 53 8 42 0 52 -3 38 -9 -16 -7 -11 -9 20
-9 31 0 36 2 20 9 -19 8 -19 9 -1 9 20 1 20 1 0 16 -18 13 -17 14 12 10 38 -4
74 -25 74 -42 0 -8 12 -13 30 -13 34 0 50 23 50 71 0 31 0 32 -20 14 -25 -22
-26 -36 -2 -29 16 5 16 5 0 -6 -10 -6 -18 -18 -18 -25 0 -8 -5 -15 -10 -15 -6
0 -9 17 -7 38 2 21 8 36 15 35 10 -3 33 28 38 50 1 4 2 9 3 12 4 17 30 -1 44
-31z"/>
<path d="M3830 903 c-20 -25 -22 -37 -18 -110 l4 -83 -38 0 c-21 0 -38 -5 -38
-11 0 -6 7 -9 15 -5 12 4 13 2 2 -15 -10 -16 -9 -21 2 -28 11 -7 11 -9 0 -14
-10 -4 -9 -6 3 -6 18 -1 33 32 23 49 -3 5 -1 10 4 10 6 0 11 -9 11 -20 0 -11
6 -20 13 -21 6 0 3 -4 -8 -9 -13 -6 18 -9 88 -9 l107 -1 0 40 c0 39 -1 40 -35
40 l-35 0 0 90 c0 77 -3 93 -20 110 -28 28 -55 25 -80 -7z"/>
<path d="M1615 910 c-29 -7 -29 -8 10 -9 34 -1 37 -3 21 -12 -10 -6 -39 -13
-65 -15 -25 -2 -56 -6 -68 -9 -13 -3 -23 -2 -23 2 0 9 -135 8 -149 -2 -6 -3
-19 -2 -28 3 -29 15 -151 7 -180 -11 -8 -5 -13 -3 -13 3 0 7 -8 9 -20 5 -12
-4 -20 -2 -20 5 0 15 -225 12 -255 -3 -13 -7 -20 -6 -23 2 -5 14 -192 16 -192
1 0 -6 37 -10 91 -10 52 0 88 -4 85 -9 -4 -5 -1 -11 4 -13 6 -2 12 -14 13 -27
l1 -23 18 22 c10 12 18 17 18 10 0 -9 7 -7 20 5 12 10 19 24 17 29 -3 8 26 10
90 8 88 -3 95 -5 105 -28 6 -13 14 -24 17 -25 42 -6 51 -4 47 7 -3 8 0 11 10
7 12 -5 19 7 15 30 -2 11 137 9 144 -3 3 -5 -10 -16 -30 -24 -19 -8 -35 -18
-35 -21 0 -3 9 -1 19 5 34 18 110 12 142 -11 16 -11 29 -27 29 -34 0 -8 5 -17
11 -21 8 -4 9 1 3 17 -4 13 -7 29 -7 36 0 7 -4 10 -9 7 -5 -3 -17 1 -26 9 -9
9 -30 19 -45 23 -21 5 -25 9 -15 15 19 13 128 11 128 -2 0 -5 4 -8 9 -4 14 8
22 -10 15 -30 -4 -9 -14 -15 -23 -12 -13 3 -16 -5 -16 -45 0 -43 1 -46 10 -25
16 39 36 57 62 57 23 0 24 -3 19 -37 -19 -117 -22 -174 -9 -184 10 -9 13 0 14
47 1 83 8 154 20 192 12 37 32 45 105 40 42 -3 49 -6 52 -25 3 -22 0 -23 -62
-23 l-64 0 4 -60 c3 -37 0 -60 -6 -60 -5 0 -10 -4 -10 -10 0 -6 27 -10 60 -10
53 0 75 -10 53 -23 -5 -2 -2 -2 6 0 9 2 11 -2 7 -13 -3 -8 -6 -24 -6 -34 0
-16 -9 -20 -62 -23 l-63 -3 66 -2 67 -2 6 35 c4 20 4 40 1 45 -3 6 -2 10 3 10
5 0 10 21 11 48 0 26 3 56 5 67 2 11 7 50 11 88 l7 67 -58 -1 c-33 -1 -72 -5
-89 -9z"/>
<path d="M2220 879 c12 -8 12 -10 -5 -8 -64 5 -114 -2 -109 -15 3 -7 0 -60 -6
-117 -9 -92 -8 -105 6 -119 9 -8 14 -10 10 -4 -4 8 3 11 19 10 14 0 25 -7 25
-13 0 -7 7 -13 15 -13 8 0 15 4 15 9 0 5 17 4 40 -1 30 -8 40 -16 41 -32 1
-19 2 -18 9 4 9 27 12 73 3 53 -2 -7 -20 -13 -39 -13 -33 0 -34 1 -33 43 1 65
15 190 23 210 6 13 4 17 -10 17 -16 0 -17 -2 -4 -11z"/>
<path d="M3543 798 c9 -24 -17 -41 -58 -36 -33 4 -35 2 -35 -24 0 -24 -4 -28
-30 -29 -16 -1 -36 -2 -42 -3 -8 -1 -13 -16 -13 -38 0 -20 3 -34 8 -31 4 2 7
0 7 -4 0 -5 41 -7 90 -5 78 3 90 2 90 -13 0 -17 -35 -56 -66 -73 -10 -5 -71
-9 -137 -8 -65 1 -121 -2 -123 -6 -3 -4 3 -7 13 -6 10 0 63 0 118 0 93 -2 98
-3 77 -18 -12 -8 -21 -23 -21 -32 1 -15 2 -15 6 -1 2 10 12 19 22 22 14 3 17
0 14 -14 -3 -11 0 -19 6 -19 6 0 11 7 11 15 0 8 5 15 10 15 6 0 10 -9 10 -20
0 -11 5 -20 10 -20 6 0 10 19 10 41 0 35 2 40 15 29 11 -9 22 -9 50 0 26 9 44
9 67 1 19 -7 35 -8 41 -2 5 5 -6 11 -27 15 -22 4 -36 13 -36 22 0 8 -15 21
-32 29 -18 8 -27 14 -20 15 6 0 12 7 12 15 0 8 6 15 13 15 7 0 13 16 14 39 2
34 -1 40 -20 43 -22 3 -40 48 -19 48 5 0 12 9 15 21 4 16 2 19 -10 15 -9 -4
-23 -1 -31 6 -13 11 -15 10 -9 -4z"/>
<path d="M1063 436 c18 -10 46 -14 83 -11 39 3 53 1 48 -7 -5 -8 2 -9 22 -4
16 4 26 4 22 0 -4 -4 -3 -13 3 -21 6 -7 8 -13 4 -13 -5 0 2 -9 14 -19 14 -12
18 -22 11 -26 -13 -8 -3 -25 13 -24 8 0 8 2 -1 6 -10 4 -9 9 4 24 16 18 16 19
-2 26 -16 6 -15 7 6 13 14 4 44 5 68 2 42 -4 42 -4 42 -44 0 -22 -7 -84 -16
-137 -13 -81 -20 -99 -42 -118 -15 -13 -34 -23 -43 -23 -9 0 -20 -7 -23 -16
-9 -23 -8 -24 14 -24 11 0 20 -4 20 -10 0 -5 19 -10 43 -9 36 1 38 2 17 9 -20
7 -16 8 25 10 41 2 45 3 25 10 l-25 8 28 1 c32 1 34 11 7 36 -17 16 -20 30
-19 104 1 113 12 191 30 202 19 12 72 11 64 -1 -4 -6 10 -10 35 -10 27 0 39 4
35 11 -4 6 -14 8 -22 5 -8 -3 -11 -1 -8 4 4 6 -10 10 -35 10 -33 0 -42 4 -50
23 -7 18 -9 18 -9 4 -1 -10 -5 -16 -10 -12 -5 3 -13 1 -16 -5 -5 -8 -11 -7
-21 1 -11 9 -14 9 -14 -1 0 -19 -116 -6 -148 16 -21 15 -48 20 -117 22 -85 3
-88 2 -62 -12z"/>
<path d="M4295 432 c-22 -2 -45 -8 -52 -14 -7 -5 -17 -7 -23 -3 -5 3 -10 -2
-10 -12 0 -15 -2 -16 -10 -3 -7 12 -12 12 -22 2 -6 -6 -28 -12 -47 -13 l-36 0
45 -15 c51 -15 94 -18 86 -5 -6 9 103 10 119 0 12 -6 24 -5 45 5 20 8 475 1
519 -9 27 -6 33 -5 29 6 -5 12 7 14 57 14 35 0 61 -4 57 -9 -3 -5 15 -6 43 -3
26 4 97 7 158 7 61 0 107 3 104 7 -4 3 -63 5 -132 4 -106 -2 -126 0 -131 13
-5 12 -22 16 -74 16 -39 0 -72 -5 -76 -11 -3 -6 -17 -8 -30 -5 -14 4 -24 2
-24 -4 0 -6 -80 -10 -227 -10 -151 0 -223 4 -213 10 11 7 5 10 -25 10 -22 0
-51 6 -65 13 -14 6 -43 11 -65 9z"/>
<path d="M5585 427 c-11 -7 -22 -15 -25 -19 -3 -4 -44 -9 -90 -11 l-85 -3 88
-2 c48 -1 87 -6 87 -11 0 -14 63 -19 76 -6 8 8 31 9 70 5 33 -4 66 -4 74 0 8
4 58 8 110 9 130 3 128 11 -3 11 -84 0 -107 3 -107 14 0 26 -155 37 -195 13z"/>
<path d="M2052 416 c-18 -7 -29 -15 -26 -19 4 -4 -50 -7 -121 -7 -71 0 -126
-2 -124 -5 3 -2 63 -5 133 -6 79 0 124 -4 115 -10 -10 -6 -5 -9 17 -9 17 0 34
3 37 7 10 9 108 10 113 1 3 -5 10 -8 16 -8 6 0 5 7 -3 17 -13 15 -12 15 6 6
11 -5 63 -9 115 -7 52 1 112 -2 132 -7 26 -7 44 -6 59 1 17 10 142 3 264 -14
6 0 9 4 8 9 -1 6 27 10 67 10 47 0 66 -3 63 -12 -3 -7 3 -10 16 -6 12 3 21 10
21 15 0 5 4 7 9 3 5 -3 12 -1 16 5 4 6 -8 10 -31 10 -21 0 -35 3 -31 6 13 13
-23 34 -57 34 -24 0 -42 -7 -53 -20 -19 -22 -59 -28 -47 -7 6 10 4 10 -7 0
-16 -16 -524 -19 -515 -4 17 27 -128 40 -192 17z"/>
<path d="M3467 410 c-14 -11 -38 -20 -54 -20 l-28 -1 34 -14 c18 -8 41 -15 51
-15 13 0 17 -5 13 -20 -6 -21 14 -53 27 -45 5 3 6 21 3 40 l-6 35 44 0 c24 0
55 3 68 7 17 4 22 3 17 -5 -10 -17 39 -16 52 1 8 10 6 16 -10 26 -11 7 -17 8
-13 2 11 -19 -14 -12 -35 9 -15 15 -33 20 -79 20 -43 0 -65 -5 -84 -20z"/>
<path d="M6010 244 c-32 -11 -60 -28 -60 -35 0 -5 -11 -25 -25 -45 -14 -20
-25 -47 -25 -60 0 -23 3 -24 66 -24 l67 0 -5 51 c-3 27 -2 47 2 42 10 -11 19
-103 10 -103 -4 0 0 -16 9 -35 l16 -34 71 -1 72 0 5 38 c2 21 0 41 -7 47 -6 6
-13 21 -14 35 -6 38 -33 79 -67 100 -33 20 -91 32 -115 24z"/>
<path d="M5302 227 c-38 -12 -89 -78 -98 -127 l-6 -30 71 0 71 0 2 53 1 52 6
-50 6 -50 45 -2 c59 -3 90 -11 90 -23 0 -9 -39 -14 -102 -13 -11 0 -18 -8 -18
-18 0 -15 10 -18 75 -18 l76 0 -5 54 c-10 98 -40 145 -113 171 -44 15 -57 16
-101 1z"/>
<path d="M1715 220 c-22 -8 -53 -40 -40 -40 5 0 1 -8 -7 -17 -9 -10 -21 -29
-27 -43 -12 -24 -11 -24 3 -5 30 39 59 66 64 60 3 -3 -2 -13 -10 -22 -22 -26
-50 -83 -41 -84 5 -1 31 -1 58 -1 45 1 47 0 23 -9 -16 -6 -28 -15 -28 -20 0
-5 -21 -9 -46 -9 -32 0 -44 -4 -42 -12 4 -10 46 -14 156 -16 131 -2 152 0 152
13 0 8 -5 15 -11 15 -5 0 -8 4 -4 9 3 5 -9 12 -27 14 l-33 4 33 1 c19 1 35 8
39 18 11 29 -16 92 -55 123 -30 26 -45 31 -87 30 -27 0 -59 -4 -70 -9z"/>
<path d="M2460 224 c-41 -14 -61 -30 -85 -65 -30 -47 -33 -62 -4 -25 23 29 47
44 90 56 42 12 35 2 -11 -16 -29 -12 -48 -29 -65 -59 -14 -23 -25 -45 -25 -48
0 -4 29 -7 65 -7 l65 0 0 43 c0 23 5 49 11 57 8 11 9 0 5 -42 l-6 -58 62 0
c45 0 59 -3 48 -10 -13 -9 -13 -10 0 -11 32 -1 -26 -18 -68 -18 -26 -1 -41 -5
-37 -11 3 -6 37 -10 75 -10 l68 0 -2 65 c-2 69 -18 102 -67 136 -25 18 -94 31
-119 23z"/>
<path d="M3180 224 c-37 -13 -60 -28 -58 -39 2 -6 0 -10 -4 -10 -9 0 -58 -89
-58 -105 0 -6 29 -10 75 -10 l74 0 4 68 3 67 2 -67 2 -68 43 0 c52 0 80 -15
57 -30 -8 -5 -34 -10 -57 -10 -24 0 -43 -4 -43 -10 0 -6 32 -10 75 -10 l74 0
-3 65 c-3 72 -22 108 -72 137 -32 18 -91 30 -114 22z"/>
<path d="M3880 214 c-70 -30 -109 -85 -108 -151 0 -23 -3 -46 -6 -52 -5 -8 42
-11 163 -11 l170 0 -5 37 c-3 21 -7 52 -10 69 -6 42 -61 100 -109 113 -50 14
-52 14 -95 -5z"/>
<path d="M4584 216 c-18 -8 -35 -20 -39 -27 -6 -8 -4 -10 6 -4 8 5 2 -4 -14
-20 -26 -27 -49 -82 -40 -98 4 -6 63 -5 136 2 5 1 6 14 2 30 -3 16 -3 45 1 65
7 41 26 46 76 20 l30 -16 -32 -19 c-18 -11 -39 -18 -46 -15 -10 4 -14 -4 -14
-32 l0 -37 57 -2 c35 -2 63 -9 72 -18 14 -13 8 -15 -53 -15 -49 0 -67 -3 -64
-12 7 -19 148 -24 149 -6 7 93 -25 163 -91 196 -50 25 -91 27 -136 8z"/>
</g>
</svg>
